<svg width="15" height="15" viewBox="0 0 15 15" fill="none" xmlns="http://www.w3.org/2000/svg">
<path d="M14.2695 7.06626C14.2825 8.63957 14.0373 10.143 13.5557 11.5793C12.868 13.6246 11.2192 15.297 9.71358 13.5169C8.48568 12.0659 8.25783 9.1203 6.41814 8.6891C3.98398 8.29286 3.92541 12.0833 2.33518 12.5116C0.562718 12.9953 -0.0252112 8.99211 0.00082257 7.17407C0.0268563 5.35602 0.38699 2.80085 1.92732 2.80085C3.69978 2.80085 3.81911 6.40489 6.06886 6.20968C8.2969 6.00573 8.33597 2.25602 9.79171 0.650656C11.0478 -0.736187 12.5252 0.280637 13.265 1.95009C13.9506 3.49426 14.2521 5.30648 14.2673 7.06626H14.2695Z" fill="#FFFFFF"/>
</svg>