<svg width="83" height="83" viewBox="0 0 83 83" fill="none" xmlns="http://www.w3.org/2000/svg">
<circle cx="41.1292" cy="41.1292" r="41.1292" fill="#EDF0F4"/>
<path d="M28.7435 40.9201C28.6265 42.9527 30.1911 44.6928 32.2237 44.8098C32.2969 44.8098 32.37 44.8098 32.4431 44.8098C34.4903 44.8098 36.1427 43.1574 36.1281 41.1102C36.1281 39.0629 34.4757 37.4105 32.4285 37.4251C30.469 37.4251 28.8458 38.9606 28.7435 40.9201Z" fill="#0033AD"/>
<path d="M14.9688 39.9694C14.3107 39.9256 13.7404 40.4374 13.7112 41.0954C13.6819 41.7534 14.1791 42.3237 14.8372 42.353C15.4952 42.3968 16.0509 41.885 16.0947 41.227C16.1386 40.569 15.6268 40.0133 14.9688 39.9694Z" fill="#0033AD"/>
<path d="M28.5089 19.4826C29.0938 19.1901 29.3277 18.4589 29.0353 17.874C28.7428 17.2891 28.0117 17.0551 27.4268 17.3476C26.8418 17.64 26.6079 18.3566 26.9003 18.9415C27.1928 19.541 27.9093 19.7896 28.5089 19.4826C28.5089 19.4826 28.4942 19.4826 28.5089 19.4826Z" fill="#0033AD"/>
<path d="M32.2528 26.0192C33.1594 25.5659 33.525 24.4545 33.0717 23.5479C32.6183 22.6412 31.507 22.2757 30.6004 22.729C29.6937 23.1823 29.3282 24.2936 29.7815 25.2003C30.2348 26.1069 31.3461 26.4725 32.2528 26.0192Z" fill="#0033AD"/>
<path d="M19.6478 30.5083C20.3497 30.9616 21.2856 30.7715 21.7535 30.0696C22.2068 29.3677 22.0167 28.4318 21.3148 27.9639C20.6129 27.5106 19.677 27.7007 19.2091 28.4026C18.7412 29.1045 18.9459 30.055 19.6478 30.5083Z" fill="#0033AD"/>
<path d="M21.8855 39.3115C20.8619 39.253 19.9991 40.028 19.9406 41.0516C19.8821 42.0752 20.6571 42.938 21.6807 42.9965C22.7044 43.055 23.5671 42.2799 23.6256 41.2563C23.6841 40.2473 22.9091 39.3699 21.8855 39.3115Z" fill="#0033AD"/>
<path d="M19.8527 51.6971C19.1069 52.0773 18.7998 52.984 19.18 53.7444C19.5602 54.4901 20.4669 54.7972 21.2273 54.417C21.973 54.0368 22.2801 53.1302 21.8999 52.3698C21.5197 51.624 20.5985 51.3169 19.8527 51.6971Z" fill="#0033AD"/>
<path d="M27.0175 35.4947C28.0265 36.1527 29.3718 35.8749 30.0152 34.8659C30.6732 33.8569 30.3954 32.5116 29.3864 31.8682C28.3774 31.2101 27.0321 31.488 26.3887 32.497C25.7307 33.4913 26.0085 34.8367 27.0175 35.4947Z" fill="#0033AD"/>
<path d="M49.757 25.873C50.6051 26.4286 51.7603 26.1947 52.316 25.3465C52.8717 24.4984 52.6377 23.3432 51.7896 22.7875C50.9415 22.2318 49.7862 22.4658 49.2306 23.3139C48.6603 24.1767 48.8942 25.3173 49.757 25.873Z" fill="#0033AD"/>
<path d="M53.5293 19.3657C54.085 19.7312 54.8161 19.5704 55.1817 19.0147C55.5473 18.459 55.3864 17.7279 54.8308 17.3623C54.2751 16.9967 53.5439 17.1576 53.1784 17.6986C52.8274 18.2543 52.9883 19.0001 53.5293 19.3657Z" fill="#0033AD"/>
<path d="M50.0346 37.3958C48.002 37.2788 46.2472 38.8435 46.1448 40.8761C46.0278 42.9087 47.5925 44.6635 49.6251 44.7658C49.6982 44.7658 49.7713 44.7658 49.8298 44.7658C51.8624 44.7658 53.5148 43.1134 53.5148 41.0662C53.5295 39.1213 51.994 37.4982 50.0346 37.3958Z" fill="#0033AD"/>
<path d="M33.4665 35.2316C34.0953 36.4746 35.3675 37.2642 36.7714 37.2642C38.804 37.2642 40.4564 35.6118 40.4564 33.5646C40.4564 32.9943 40.3248 32.424 40.0615 31.8975C39.1403 30.0697 36.9176 29.3385 35.1043 30.2598C33.2764 31.1956 32.5453 33.4183 33.4665 35.2316Z" fill="#0033AD"/>
<path d="M62.4054 30.5085C63.1512 30.1283 63.4436 29.207 63.0634 28.4613C62.6832 27.7155 61.762 27.423 61.0162 27.8032C60.2704 28.1834 59.978 29.09 60.3435 29.8358C60.7384 30.5816 61.645 30.8887 62.4054 30.5085Z" fill="#0033AD"/>
<path d="M53.0468 31.6783C51.9793 32.2194 51.5406 33.5208 52.0817 34.5883C52.6228 35.6558 53.9242 36.0945 54.9917 35.5534C56.0592 35.0124 56.4979 33.7109 55.9568 32.6434C55.4158 31.5759 54.1143 31.1519 53.0468 31.6783Z" fill="#0033AD"/>
<path d="M40.983 18.8099C41.8165 18.8537 42.5331 18.2103 42.5916 17.3768C42.6501 16.5433 41.992 15.8268 41.1585 15.7683C40.325 15.7244 39.6085 16.3532 39.55 17.1867C39.5061 18.0348 40.1495 18.7514 40.983 18.8099Z" fill="#0033AD"/>
<path d="M40.9689 28.3589C42.1679 28.432 43.1916 27.5107 43.25 26.3116C43.3232 25.1125 42.4019 24.0889 41.2028 24.0304C40.0037 23.9573 38.9801 24.8786 38.9216 26.0777C38.8631 27.2768 39.7698 28.3004 40.9689 28.3589Z" fill="#0033AD"/>
<path d="M29.2114 50.5274C30.2789 49.9863 30.7176 48.6849 30.1765 47.6174C29.6355 46.5499 28.334 46.1112 27.2665 46.6523C26.1991 47.1933 25.7604 48.4948 26.3014 49.5622C26.8425 50.6297 28.1439 51.0684 29.2114 50.5274Z" fill="#0033AD"/>
<path d="M42.3716 31.532C41.2603 33.2429 41.7282 35.5241 43.4391 36.6355C45.15 37.7468 47.4312 37.2789 48.5425 35.568C49.6539 33.8571 49.186 31.5759 47.4751 30.4645C46.8755 30.0697 46.1736 29.865 45.4571 29.865C44.2141 29.865 43.0589 30.4938 42.3716 31.532Z" fill="#0033AD"/>
<path d="M48.792 46.974C47.8708 45.1461 45.6481 44.4149 43.8348 45.3362C42.0069 46.2574 41.2758 48.4801 42.197 50.2934C43.1183 52.1213 45.341 52.8524 47.1542 51.9312C48.9675 51.0245 49.7133 48.8311 48.8066 47.0032C48.8066 46.9886 48.8066 46.9886 48.792 46.974Z" fill="#0033AD"/>
<path d="M55.2399 46.7107C54.2309 46.0527 52.8856 46.3305 52.2422 47.3395C51.5842 48.3485 51.862 49.6938 52.871 50.3372C53.88 50.9953 55.2253 50.7174 55.8687 49.7084C56.5268 48.7141 56.2489 47.3687 55.2399 46.7107Z" fill="#0033AD"/>
<path d="M62.318 41.1687C62.3765 40.1451 61.6015 39.2823 60.5779 39.2238C59.5542 39.1653 58.6915 39.9403 58.633 40.964C58.5745 41.9876 59.3495 42.8503 60.3731 42.9088C61.3821 42.9673 62.2595 42.1777 62.318 41.1687Z" fill="#0033AD"/>
<path d="M67.4219 39.8525C66.7639 39.8086 66.1936 40.3204 66.1643 40.9785C66.1351 41.6365 66.6323 42.2068 67.2903 42.236C67.9483 42.2799 68.504 41.7681 68.5479 41.1101C68.5771 40.452 68.0799 39.8963 67.4219 39.8525Z" fill="#0033AD"/>
<path d="M62.6101 51.6973C61.9082 51.244 60.9724 51.4341 60.5044 52.136C60.0511 52.8379 60.2412 53.7738 60.9431 54.2417C61.645 54.695 62.5809 54.5049 63.0488 53.803C63.5168 53.1011 63.312 52.1506 62.6101 51.6973Z" fill="#0033AD"/>
<path d="M28.7137 62.8401C28.158 62.4745 27.4269 62.6354 27.0613 63.1764C26.6957 63.7321 26.8566 64.4632 27.3976 64.8288C27.9533 65.1944 28.6844 65.0335 29.05 64.4925C29.4302 63.9514 29.2694 63.2057 28.7137 62.8401Z" fill="#0033AD"/>
<path d="M53.749 62.723C53.1641 63.0155 52.9301 63.7466 53.2226 64.3316C53.515 64.9165 54.2462 65.1505 54.8311 64.858C55.416 64.5655 55.65 63.849 55.3576 63.2641C55.0651 62.6645 54.3486 62.4159 53.749 62.723C53.7636 62.723 53.749 62.723 53.749 62.723Z" fill="#0033AD"/>
<path d="M39.8859 50.6735C40.9972 48.9626 40.5293 46.6814 38.8184 45.5555C37.1075 44.4441 34.8263 44.912 33.7003 46.6229C32.5744 48.3338 33.0569 50.615 34.7678 51.741C35.3674 52.1358 36.0693 52.3406 36.7858 52.3406C38.0434 52.3552 39.1986 51.7264 39.8859 50.6735Z" fill="#0033AD"/>
<path d="M32.502 56.3327C31.6539 55.777 30.4987 56.0109 29.943 56.8591C29.3873 57.7072 29.6213 58.8624 30.4694 59.4181C31.3176 59.9738 32.4728 59.7398 33.0285 58.8917C33.5988 58.0436 33.3648 56.8883 32.502 56.3327Z" fill="#0033AD"/>
<path d="M41.1151 63.3957C40.2816 63.3518 39.565 63.9952 39.5065 64.8287C39.4481 65.6622 40.1061 66.3788 40.9396 66.4373C41.7731 66.4811 42.4897 65.8523 42.5481 65.0188C42.592 64.1707 41.9486 63.4542 41.1151 63.3957Z" fill="#0033AD"/>
<path d="M41.129 53.8466C39.9299 53.7735 38.9063 54.6947 38.8478 55.8938C38.7747 57.0929 39.696 58.1165 40.895 58.175C42.0941 58.2335 43.1178 57.3269 43.1762 56.1278C43.2494 54.9433 42.3281 53.9051 41.129 53.8466Z" fill="#0033AD"/>
<path d="M50.0054 56.1863C49.0987 56.6543 48.7332 57.7656 49.2011 58.6722C49.669 59.5789 50.7804 59.9445 51.687 59.4765C52.5936 59.0232 52.9592 57.9118 52.5059 57.0052C52.038 56.0986 50.9266 55.7184 50.0054 56.1863Z" fill="#0033AD"/>
</svg>
