<svg width="112" height="112" viewBox="0 0 112 112" fill="none" xmlns="http://www.w3.org/2000/svg">
<path d="M75.8745 43.3614C72.4003 45.5104 70.2545 49.1946 70.2545 53.2881C70.2545 57.8933 73.0135 62.0891 77.2029 63.8288C76.3855 66.4896 75.1593 68.9456 73.6265 71.1971C71.3785 74.3695 69.0283 77.6443 65.554 77.6443C62.0799 77.6443 61.058 75.5975 56.9708 75.5975C52.9856 75.5975 51.555 77.7466 48.2852 77.7466C45.0154 77.7466 42.7673 74.7788 40.2127 71.0948C36.8407 65.9779 34.8993 60.0423 34.7971 53.7998C34.7971 43.6684 41.3368 38.2445 47.8764 38.2445C51.3507 38.2445 54.2118 40.496 56.3576 40.496C58.4013 40.496 61.6712 38.1422 65.554 38.1422C69.6414 38.0399 73.5244 39.9843 75.8745 43.3614ZM63.7148 33.844C65.4519 31.7973 66.3716 29.2388 66.4737 26.5781C66.4737 26.2711 66.4737 25.8618 66.3716 25.5547C63.4083 25.8618 60.6493 27.2945 58.7079 29.5459C56.9708 31.4903 55.9489 33.9463 55.8467 36.6071C55.8467 36.9142 55.8467 37.2211 55.9489 37.5282C56.1533 37.5282 56.4598 37.6305 56.6641 37.6305C59.4231 37.4258 61.9777 35.9931 63.7148 33.844Z" fill="white"/>
</svg>
