<svg width="83" height="83" viewBox="0 0 83 83" fill="none" xmlns="http://www.w3.org/2000/svg">
<circle cx="41.1292" cy="41.1292" r="41.1292" fill="#E84142"/>
<path fill-rule="evenodd" clip-rule="evenodd" d="M43.591 12.2092C42.1661 9.74796 39.8991 9.74796 38.4742 12.2092L12.5984 57.7752C11.1734 60.2688 12.3393 62.2443 15.1892 62.2443H28.1757C30.7989 62.0824 33.163 60.6899 34.5879 58.4877L50.23 31.3813C51.3635 29.0495 51.3635 26.2968 50.23 23.9651L45.5665 15.7716L43.591 12.2092ZM60.7878 42.1979C59.3629 39.7367 57.0635 39.7367 55.6386 42.1979L46.6031 57.7752C45.2105 60.2365 46.3764 62.2444 49.1939 62.2444H67.0705C69.9204 62.2444 71.0863 60.2365 69.6613 57.7752L60.7878 42.1979Z" fill="white"/>
</svg>
