<svg width="83" height="83" viewBox="0 0 83 83" fill="none" xmlns="http://www.w3.org/2000/svg">
<path d="M81.0274 51.0785C75.5343 73.1122 53.2177 86.5215 31.1814 81.027C9.15432 75.5339 -4.25496 53.2159 1.24055 31.184C6.73124 9.14791 29.0478 -4.26237 51.0773 1.23073C73.112 6.72383 86.5205 29.0442 81.0268 51.0789L81.0272 51.0785H81.0274Z" fill="#F7931A"/>
<path fill-rule="evenodd" clip-rule="evenodd" d="M59.2697 35.2693C60.0883 29.7959 55.9212 26.8538 50.2231 24.8911L52.0716 17.4769L47.5583 16.3523L45.7589 23.5713C44.5724 23.2753 43.3539 22.9965 42.1428 22.7201L43.9554 15.4535L39.445 14.3289L37.5954 21.7406C36.6136 21.5171 35.6492 21.2962 34.7136 21.0634L34.7188 21.04L28.4949 19.4858L27.2944 24.3063C27.2944 24.3063 30.6428 25.0738 30.5722 25.1211C32.3999 25.5772 32.7304 26.787 32.6755 27.746L30.5698 36.1925C30.6957 36.2245 30.8589 36.2707 31.039 36.3431L30.9081 36.3104L30.9078 36.3103C30.7965 36.2825 30.6808 36.2535 30.562 36.2251L27.6106 48.0574C27.3872 48.6127 26.8203 49.446 25.5425 49.1295C25.5878 49.1951 22.2622 48.3109 22.2622 48.3109L20.0215 53.4771L25.8947 54.9413C26.5379 55.1026 27.1734 55.2682 27.8025 55.4322C28.2422 55.5469 28.6787 55.6607 29.1125 55.7716L27.2449 63.2708L31.7529 64.3954L33.6025 56.9758C34.834 57.3101 36.0292 57.6185 37.1992 57.9092L35.3559 65.2938L39.8693 66.4184L41.7368 58.9333C49.4328 60.3898 55.2196 59.8025 57.6554 52.8415C59.6181 47.237 57.5577 44.0043 53.5088 41.8963C56.4578 41.2162 58.679 39.2766 59.2713 35.2699L59.2699 35.2689L59.2697 35.2693ZM35.9473 51.7725L35.9473 51.7725L35.947 51.7725C35.6159 51.685 35.32 51.6069 35.0676 51.5442L37.5459 41.609C37.8537 41.6858 38.2297 41.7702 38.6557 41.8658C42.4648 42.7206 50.269 44.4721 48.9581 49.729H48.9579C47.6783 54.8709 39.6298 52.7452 35.9473 51.7725ZM39.4197 37.2546C42.4899 38.0739 49.1873 39.8614 50.3537 35.188H50.3541C51.5452 30.4083 45.0364 28.9673 41.8575 28.2635C41.4999 28.1843 41.1844 28.1144 40.9268 28.0502L38.6798 37.0608C38.8919 37.1137 39.1409 37.1802 39.4197 37.2546Z" fill="white"/>
</svg>
