<svg width="56" height="58" viewBox="0 0 56 58" fill="none" xmlns="http://www.w3.org/2000/svg">
<g clip-path="url(#clip0_434_1268)">
<path d="M55.4604 23.2889H28.5964V34.2824H44.0325C43.7843 35.8381 43.2272 37.3687 42.4113 38.7643C41.4765 40.3632 40.3207 41.5806 39.1361 42.5076C35.5877 45.2845 31.4508 45.8523 28.5777 45.8523C21.3199 45.8523 15.1186 41.0617 12.718 34.5521C12.6211 34.316 12.5568 34.072 12.4785 33.8307C11.9479 32.1739 11.6581 30.4193 11.6581 28.5955C11.6581 26.6975 11.972 24.8807 12.5442 23.1647C14.8017 16.3971 21.1427 11.3423 28.5828 11.3423C30.0794 11.3423 31.5205 11.5242 32.8871 11.8871C36.0103 12.7164 38.2196 14.3495 39.5733 15.6415L47.7416 7.4719C42.7728 2.81922 36.2956 5.41616e-09 28.5693 5.41616e-09C22.3925 -0.000119135 16.69 1.96534 12.0168 5.28698C8.22706 7.98075 5.11893 11.5874 3.02134 15.776C1.07029 19.6598 0.00195312 23.9637 0.00195312 28.5912C0.00195312 33.219 1.07196 37.5677 3.023 41.4155V41.4415C5.08378 45.5265 8.09744 49.0438 11.7602 51.7251C14.9601 54.0677 20.6975 57.1875 28.5693 57.1875C33.0961 57.1875 37.1082 56.354 40.6464 54.7919C43.1989 53.665 45.4603 52.1953 47.5079 50.3064C50.2133 47.8104 52.3321 44.7232 53.7782 41.1714C55.2245 37.6195 55.998 33.6029 55.998 29.2482C55.998 27.2202 55.7986 25.1607 55.4604 23.2889Z" fill="#4285F4"/>
<path d="M12.718 34.5521C12.6211 34.316 12.5568 34.072 12.4785 33.8307C11.948 32.1739 11.6581 30.4193 11.6581 28.5955C11.6581 26.6975 11.972 24.8807 12.5443 23.1647C14.8017 16.3971 21.1428 11.3423 28.5829 11.3423C30.0794 11.3423 31.5205 11.5242 32.8872 11.8871C36.0103 12.7164 38.2197 14.3495 39.5733 15.6415L47.7416 7.4719C42.7729 2.81922 36.2957 5.41616e-09 28.5693 5.41616e-09C22.3926 -0.000119135 16.69 1.96534 12.0168 5.28698C8.22709 7.98075 5.11895 11.5874 3.02136 15.776L12.5443 23.1647" fill="#FBBC05"/>
<path d="M3.02301 41.4155C5.08379 45.5265 8.09745 49.0437 11.7602 51.7251C14.9601 54.0677 20.6975 57.1875 28.5693 57.1875V45.8523C25.6301 45.8523 23.2745 44.644 20.8594 43.269L12.718 34.5521" fill="#34A853"/>
<path d="M55.4604 23.2889H28.5964V34.2823H44.0325C43.7844 35.8381 43.2273 37.3687 42.4113 38.7643C41.4765 40.3632 40.3207 41.5805 39.1361 42.5076L47.7416 50.3064C50.2133 47.8104 52.3321 44.7232 53.7782 41.1714C55.2245 37.6195 55.9981 33.6029 55.9981 29.2482C55.9981 27.2202 55.7986 25.1606 55.4604 23.2889Z" fill="#4285F4"/>
<path d="M39.5733 15.6415L47.7416 7.4719C42.7729 2.81922 36.2957 0 28.5693 0V11.3423C30.0794 11.3423 31.5205 11.5242 32.8872 11.8871C36.0103 12.7164 38.2197 14.3495 39.5733 15.6415Z" fill="#EA4335"/>
</g>
<defs>
<clipPath id="clip0_434_1268">
<rect width="56" height="57.1875" fill="white"/>
</clipPath>
</defs>
</svg>
