<svg width="112" height="105" viewBox="0 0 112 105" fill="none" xmlns="http://www.w3.org/2000/svg">
<path d="M65.8419 30.929H46.1583V66.1459H65.8419V30.929Z" fill="#FF5F00"/>
<path d="M47.4076 48.5374C47.4076 41.6931 50.5945 35.1599 55.9684 30.9289C46.2204 23.2758 32.0981 24.9557 24.4121 34.7243C16.7261 44.4308 18.4133 58.4927 28.2239 66.1459C36.4098 72.5547 47.8451 72.5547 56.031 66.1459C50.5945 61.9149 47.4076 55.3817 47.4076 48.5374Z" fill="#EB001B"/>
<path d="M92.3989 48.5375C92.3989 60.9193 82.3383 70.937 69.9033 70.937C64.8417 70.937 59.9677 69.257 56.031 66.1459C65.7791 58.4927 67.4663 44.4308 59.7803 34.6622C58.6555 33.2933 57.4057 31.9867 56.031 30.9289C65.7791 23.2758 79.9638 24.9557 87.5874 34.7243C90.7117 38.6444 92.3989 43.4975 92.3989 48.5375Z" fill="#F79E1B"/>
<path d="M90.2736 62.4127V61.6661H90.586V61.5417H89.8362V61.6661H90.1487V62.4127H90.2736ZM91.7108 62.4127V61.5417H91.4609L91.211 62.1638L90.961 61.5417H90.711V62.4127H90.8985V61.7283L91.1484 62.2883H91.3359L91.5859 61.7283V62.4127H91.7108Z" fill="#F79E1B"/>
</svg>
