<svg width="64" height="43" viewBox="0 0 64 43" fill="none" xmlns="http://www.w3.org/2000/svg">
<g clip-path="url(#clip0_434_1401)">
<path d="M6.86126 27.7907C6.86126 30.2133 7.39298 32.0732 8.08797 33.1984C8.99918 34.6722 10.3583 35.2966 11.7438 35.2966C13.5309 35.2966 15.1658 34.8531 18.3164 30.4957C20.8405 27.0031 23.8146 22.1006 25.8157 19.0273L29.2046 13.8204C31.5587 10.2042 34.2835 6.1843 37.4077 3.4595C39.9582 1.23554 42.7094 0 45.4784 0C50.1271 0 54.5552 2.69391 57.944 7.74637C61.6529 13.2798 63.4532 20.2496 63.4532 27.4421C63.4532 31.718 62.6104 34.8598 61.1763 37.3419C59.7907 39.7423 57.0902 42.1406 52.5474 42.1406V35.2966C56.4371 35.2966 57.4079 31.7224 57.4079 27.6319C57.4079 21.8028 56.0488 15.3339 53.0549 10.7117C50.9302 7.43307 48.1767 5.42974 45.1474 5.42974C41.8711 5.42974 39.2345 7.90081 36.2714 12.3068C34.6961 14.6477 33.0789 17.5005 31.2631 20.7195L29.2642 24.2606C25.2487 31.3804 24.2316 33.002 22.2238 35.6783C18.7048 40.3645 15.6998 42.1406 11.7438 42.1406C7.051 42.1406 4.08351 40.1086 2.24565 37.0462C0.745355 34.5509 0.00844574 31.2767 0.00844574 27.5458L6.86126 27.7907Z" fill="#0081FB"/>
<path d="M5.41171 8.22955C8.5535 3.38669 13.0875 0 18.2878 0C21.2994 0 24.2933 0.891351 27.4197 3.44406C30.8395 6.23504 34.4843 10.8308 39.0315 18.4051L40.662 21.1233C44.598 27.6804 46.8375 31.0539 48.148 32.6446C49.8336 34.6877 51.014 35.2966 52.5474 35.2966C56.4371 35.2966 57.4079 31.7224 57.4079 27.6319L63.4532 27.4421C63.4532 31.718 62.6104 34.8598 61.1763 37.3419C59.7907 39.7423 57.0902 42.1406 52.5474 42.1406C49.7233 42.1406 47.2214 41.5272 44.4546 38.9172C42.3278 36.9138 39.8412 33.3551 37.9284 30.1559L32.2383 20.6511C29.3833 15.881 26.7644 12.3245 25.2487 10.7139C23.6182 8.9819 21.5222 6.89032 18.1774 6.89032C15.4703 6.89032 13.1713 8.78996 11.2474 11.6957L5.41171 8.22955Z" fill="url(#paint0_linear_434_1401)"/>
<path d="M18.1774 6.89032C15.4703 6.89032 13.1713 8.78996 11.2474 11.6957C8.52702 15.8016 6.86126 21.9175 6.86126 27.7907C6.86126 30.2133 7.39298 32.0732 8.08797 33.1984L2.24565 37.0462C0.745355 34.5509 0.00844574 31.2767 0.00844574 27.5458C0.00844574 20.7614 1.87057 13.6902 5.41171 8.22955C8.5535 3.38669 13.0875 0 18.2878 0L18.1774 6.89032Z" fill="url(#paint1_linear_434_1401)"/>
</g>
<defs>
<linearGradient id="paint0_linear_434_1401" x1="13.467" y1="25.8139" x2="57.152" y2="28.0202" gradientUnits="userSpaceOnUse">
<stop stop-color="#0064E1"/>
<stop offset="0.4" stop-color="#0064E1"/>
<stop offset="0.83" stop-color="#0073EE"/>
<stop offset="1" stop-color="#0082FB"/>
</linearGradient>
<linearGradient id="paint1_linear_434_1401" x1="9.93686" y1="30.6678" x2="9.93686" y2="14.5617" gradientUnits="userSpaceOnUse">
<stop stop-color="#0082FB"/>
<stop offset="1" stop-color="#0064E0"/>
</linearGradient>
<clipPath id="clip0_434_1401">
<rect width="64" height="42.1406" fill="white"/>
</clipPath>
</defs>
</svg>
