<svg width="112" height="105" viewBox="0 0 112 105" fill="none" xmlns="http://www.w3.org/2000/svg">
<path d="M47.3427 39.4895V35.4659C47.76 35.4244 48.1354 35.4244 48.5526 35.4244C59.6924 35.0926 66.9937 44.9649 66.9937 44.9649C66.9937 44.9649 59.1083 55.7914 50.6388 55.7914C49.5123 55.7914 48.4275 55.6254 47.3427 55.2521V43.0153C51.6817 43.5546 52.5579 45.4212 55.1447 49.7352L60.944 44.882C60.944 44.882 56.6884 39.3651 49.5957 39.3651C48.8447 39.3651 48.0937 39.4065 47.3427 39.4895ZM47.3427 26.1328V32.1474L48.5526 32.0645C64.0314 31.5252 74.1282 44.6746 74.1282 44.6746C74.1282 44.6746 62.5294 58.7364 50.4719 58.7364C49.4288 58.7364 48.3857 58.6535 47.3427 58.4461V62.1793C48.1771 62.2623 49.0533 62.3453 49.9294 62.3453C61.1526 62.3453 69.2884 56.621 77.1739 49.9011C78.4672 50.9381 83.8076 53.4684 84.9341 54.5469C77.4659 60.769 60.0261 65.7882 50.138 65.7882C49.1785 65.7882 48.3023 65.7466 47.3844 65.6222V70.9318H90.0659V26.1328H47.3427ZM47.3427 55.2935V58.4876C36.954 56.621 34.0752 45.8775 34.0752 45.8775C34.0752 45.8775 39.0817 40.4021 47.3427 39.4895V42.9738H47.301C42.9619 42.4346 39.5407 46.4997 39.5407 46.4997C39.5407 46.4997 41.5016 53.3025 47.3427 55.2935ZM28.9016 45.4212C28.9016 45.4212 35.0347 36.3785 47.3427 35.4659V32.1889C33.6996 33.2674 21.9341 44.716 21.9341 44.716C21.9341 44.716 28.6096 63.9215 47.3427 65.6638V62.1793C33.5744 60.4786 28.9016 45.4212 28.9016 45.4212Z" fill="#76B900"/>
</svg>
