<svg width="112" height="90" viewBox="0 0 112 90" fill="none" xmlns="http://www.w3.org/2000/svg">
<path d="M45.3483 61.0058H67.687C78.3059 60.7473 86.6586 51.8907 86.3996 41.3533C86.1407 31.0745 77.8527 22.8645 67.687 22.6058H45.3483C34.7294 22.3473 25.8587 30.6866 25.5996 41.2887C25.3407 51.8907 33.6934 60.6826 44.3123 60.9412C44.6361 61.0058 44.9598 61.0058 45.3483 61.0058ZM67.169 54.218H45.8015C38.9381 54.024 33.5639 48.2705 33.7581 41.418C34.0171 34.8887 39.2619 29.5877 45.8015 29.3937H67.169C74.0324 29.1997 79.7951 34.5654 79.9894 41.418C80.1837 48.2705 74.8095 54.024 67.9459 54.218C67.687 54.218 67.4279 54.218 67.169 54.218Z" fill="#C74634"/>
</svg>
