<svg width="112" height="112" viewBox="0 0 112 112" fill="none" xmlns="http://www.w3.org/2000/svg">
<path d="M74.0874 63.2269L77.0971 68.8366L55.9506 77.588L34.7971 68.8366L37.814 63.2269L55.9506 70.8365L74.0874 63.2269ZM55.9506 25.5547C67.1522 25.5547 76.2383 34.377 76.2383 45.2561C76.2383 56.135 67.1593 64.9573 55.9506 64.9573C44.7421 64.9573 35.6559 56.135 35.6559 45.2561C35.6559 34.377 44.7421 25.5547 55.9506 25.5547ZM55.9506 31.6538C48.1991 31.6538 41.924 37.7457 41.924 45.2702C41.924 52.7948 48.2062 58.8937 55.9506 58.8937C63.6951 58.8937 69.9774 52.8018 69.9774 45.2773C69.9774 37.7529 63.7022 31.6538 55.9506 31.6538Z" fill="white"/>
</svg>
