<svg width="83" height="83" viewBox="0 0 83 83" fill="none" xmlns="http://www.w3.org/2000/svg">
<path fill-rule="evenodd" clip-rule="evenodd" d="M41.1292 82.2584C18.5081 82.2584 0 63.7506 0 40.9244C0.205646 18.3038 18.5081 -0.203944 41.3348 0.00169728C63.9559 0.207339 82.2584 18.5094 82.2584 41.5413C82.0527 63.9563 63.7502 82.2584 41.1292 82.2584Z" fill="#FC070C"/>
<path fill-rule="evenodd" clip-rule="evenodd" d="M70.4331 32.4275C69.3106 31.3911 68.0092 30.1275 66.6531 28.8109C64.7483 26.9614 62.7356 25.0072 60.9592 23.4305L60.7793 23.3046C60.4799 23.0642 60.1423 22.8756 59.7806 22.7468L58.4096 22.491C48.95 20.7259 18.2875 15.0046 17.6568 15.0813C17.4702 15.1075 17.2919 15.1751 17.1349 15.2793L16.964 15.4142C16.7535 15.628 16.5936 15.8862 16.4962 16.17L16.4512 16.2869V16.9257V17.0247C18.5329 22.8214 23.9406 35.7667 28.9338 47.7197L28.9339 47.7199L28.934 47.72L28.9341 47.7202C33.1554 57.8255 37.0804 67.2214 38.4488 70.9886L38.4493 70.9901C38.6294 71.5484 38.9712 72.6081 39.6094 72.662H39.7533C40.0952 72.662 41.5527 70.7367 41.5527 70.7367C41.5527 70.7367 67.608 39.1393 70.2441 35.7744C70.5853 35.3599 70.8866 34.9141 71.1438 34.4428C71.2774 33.6928 71.0075 32.9278 70.4331 32.4275ZM48.2373 36.1072L59.3575 26.8853L65.8803 32.8953L48.2373 36.1072ZM24.7734 19.8137L43.919 35.5044L55.75 25.5268L24.7734 19.8137ZM45.6461 39.6161L65.2415 36.4582L42.8391 63.4491L45.6461 39.6161ZM42.3176 38.4734L22.1734 21.3791L39.4026 63.467L42.3176 38.4734Z" fill="white"/>
</svg>
