<svg width="112" height="112" viewBox="0 0 112 112" fill="none" xmlns="http://www.w3.org/2000/svg">
<path d="M55.9055 75.8106L62.5984 38.0355C68.9707 38.0355 70.988 38.7361 71.2708 41.5952C71.2708 41.5952 75.5505 39.9858 77.6997 36.7479C69.2912 32.8284 60.8262 32.658 60.8262 32.658L55.8867 38.6982H55.9055L50.9849 32.658C50.9849 32.658 42.5198 32.8284 34.1113 36.7479C36.2606 40.0047 40.5402 41.5952 40.5402 41.5952C40.823 38.7361 42.8403 38.0355 49.175 38.0165L55.9055 75.8106Z" fill="#E82127"/>
<path d="M55.9057 30.916C62.7117 30.8592 70.498 31.9763 78.4729 35.4604C79.5475 33.529 79.8115 32.6769 79.8115 32.6769C71.1013 29.2118 62.9379 28.0379 55.9057 28C48.8924 28.0379 40.729 29.2118 32 32.6769C32 32.6769 32.3959 33.7183 33.3386 35.4604C41.3134 31.9574 49.0998 30.8592 55.9057 30.916Z" fill="#E82127"/>
</svg>
