<svg width="403" height="66" viewBox="0 0 403 66" fill="none" xmlns="http://www.w3.org/2000/svg">
<g clip-path="url(#clip0_421_985)">
<path d="M71.1241 27.7644C71.1241 52.2299 56.7468 60.0816 49.1224 53.1402C42.9141 47.4506 41.0624 35.3885 31.6954 34.1368C19.8232 32.6575 18.7341 49.1575 10.8919 49.1575C1.7427 49.1575 0 35.3885 0 28.2195C0 20.9368 1.96054 11.0368 9.69378 11.0368C18.7341 11.0368 19.2787 25.2609 30.6062 24.4644C41.8249 23.6678 42.0427 8.87474 49.4492 2.61612C55.8754 -2.95974 71.1241 2.9575 71.1241 27.7644Z" fill="white"/>
<path d="M104.889 50.523V3.07129H109.246V23.6678H135.822V3.07129H140.07V50.6368H135.822V27.5368H109.246V50.6368H104.889V50.523Z" fill="white"/>
<path d="M151.397 64.9749L157.279 49.7266L144.535 17.7508H149.001L157.388 39.3714C157.824 40.737 158.586 42.4439 159.457 44.6059C159.566 44.2645 159.675 43.9232 159.893 43.5818C160.002 43.2404 160.111 42.899 160.329 42.5577C160.546 41.9887 160.873 41.4197 160.982 40.8508C161.091 40.2818 161.309 39.8266 161.527 39.2577L169.369 17.637H173.617L155.754 64.8611H151.397V64.9749Z" fill="white"/>
<path d="M177.756 64.9748V17.7507H181.786V19.799C181.786 20.2541 181.786 20.5955 181.786 21.0507C181.786 21.5058 181.786 21.961 181.786 22.4162C181.786 22.6438 181.786 22.8714 181.786 23.099C181.786 23.3265 181.786 23.5541 181.786 23.7817C182.875 21.7334 184.291 20.0265 186.36 18.7748C188.321 17.5231 190.499 16.8403 193.004 16.8403C195.945 16.8403 198.45 17.6369 200.629 19.1162C202.807 20.5955 204.441 22.6438 205.639 25.261C206.837 27.8783 207.382 30.8369 207.382 34.1369C207.382 37.5507 206.837 40.5093 205.639 43.1265C204.441 45.7438 202.698 47.7921 200.629 49.3852C198.45 50.8645 195.945 51.661 193.222 51.661C190.826 51.661 188.756 51.0921 186.687 49.8403C184.726 48.7024 183.202 46.8817 182.003 44.6059C182.003 44.9472 182.003 45.2886 182.003 45.7438C182.003 46.0852 182.003 46.4265 182.003 46.7679C182.003 46.9955 182.003 47.3369 182.003 47.5645C182.003 47.7921 182.003 48.0196 182.003 48.2472V65.0886H177.756V64.9748ZM192.351 48.1334C194.529 48.1334 196.381 47.5645 198.015 46.3127C199.648 45.061 200.846 43.4679 201.827 41.3059C202.698 39.1438 203.134 36.7541 203.134 34.0231C203.134 31.2921 202.698 28.9024 201.827 26.8541C200.955 24.8059 199.648 23.099 198.015 21.961C196.381 20.8231 194.529 20.2541 192.351 20.2541C190.281 20.2541 188.43 20.8231 186.796 21.961C185.162 23.099 183.855 24.6921 182.984 26.8541C182.112 28.9024 181.568 31.4058 181.568 34.1369C181.568 36.8679 182.003 39.3714 182.984 41.4196C183.855 43.5817 185.162 45.1748 186.796 46.4265C188.43 47.6783 190.281 48.1334 192.351 48.1334Z" fill="white"/>
<path d="M226.66 51.5472C223.719 51.5472 221.105 50.8645 218.818 49.499C216.531 48.1335 214.788 46.0852 213.59 43.4679C212.392 40.8507 211.738 37.6645 211.738 34.0231C211.738 30.7231 212.392 27.7645 213.699 25.1473C215.006 22.53 216.749 20.4817 218.927 19.0024C221.105 17.5231 223.61 16.7266 226.333 16.7266C229.274 16.7266 231.779 17.4093 233.958 18.8886C236.027 20.2541 237.661 22.3024 238.75 24.8059C239.839 27.4231 240.384 30.3817 240.384 33.7955V34.7059H215.768C215.768 37.5507 216.204 39.9404 217.184 41.9886C218.164 44.0369 219.363 45.5162 220.996 46.5404C222.63 47.5645 224.591 48.1335 226.66 48.1335C229.165 48.1335 231.235 47.5645 232.977 46.3128C234.611 45.061 235.7 43.1266 236.027 40.6231H240.057C239.73 42.6714 239.077 44.6059 237.879 46.199C236.79 47.7921 235.265 49.1576 233.304 50.0679C231.562 50.9783 229.274 51.5472 226.66 51.5472ZM236.027 31.5197C236.027 28.1059 235.156 25.3748 233.413 23.3266C231.67 21.2783 229.383 20.2542 226.333 20.2542C223.393 20.2542 220.996 21.2783 219.145 23.4404C217.293 25.6024 216.204 28.2197 215.877 31.5197H236.027Z" fill="white"/>
<path d="M246.592 50.5231V17.7507H250.622V19.9127C250.622 20.2541 250.622 20.5955 250.622 20.9369C250.622 21.2783 250.622 21.6196 250.622 21.961C250.622 22.3024 250.622 22.7576 250.622 23.099C250.622 23.4403 250.622 23.8955 250.622 24.3507C251.494 22.1886 252.801 20.3679 254.761 19.0024C256.613 17.6369 258.791 16.8403 261.296 16.8403C261.95 16.8403 262.494 16.8403 263.039 16.9541V21.0507C262.277 20.9369 261.623 20.9369 261.079 20.9369C259.009 20.9369 257.157 21.3921 255.633 22.4162C254.108 23.4403 252.91 24.8058 252.038 26.6265C251.167 28.4472 250.731 30.6093 250.731 32.999V50.6369H246.592V50.5231Z" fill="white"/>
<path d="M273.06 49.6127L272.842 50.523H260.098L260.316 49.6127C263.802 49.2713 265.327 48.1334 265.871 45.4023L273.06 10.0127C273.822 6.37132 272.733 5.80236 269.03 6.59891L269.248 5.68855L277.09 2.95752H277.961L269.356 45.5161C268.703 48.1334 269.683 49.2713 273.06 49.6127Z" fill="white"/>
<path d="M287.546 49.6128L287.328 50.5232H274.476L274.693 49.6128C278.179 49.2714 279.704 48.1335 280.248 45.4025L284.605 23.7818C285.367 20.1404 284.387 19.5714 280.575 20.368L280.793 19.4576L288.635 16.7266H289.506L283.734 45.4025C283.189 48.1335 284.169 49.2714 287.546 49.6128ZM289.724 4.77832C291.467 4.77832 292.556 6.14384 292.338 7.96453C292.12 9.78522 290.596 11.0369 288.962 11.0369C287.219 11.0369 286.021 9.67142 286.239 7.96453C286.348 6.14384 287.873 4.77832 289.724 4.77832Z" fill="white"/>
<path d="M309.548 60.0817L313.033 43.1266C310.855 48.1335 306.171 51.5473 301.379 51.5473C293.537 51.5473 289.833 43.8093 292.229 32.3162C293.863 23.8955 301.052 16.7266 309.548 16.7266C313.469 16.7266 316.736 18.5473 318.043 21.2783L320.984 16.7266H321.855L312.924 60.0817C312.271 63.0404 314.558 63.6093 316.845 64.0645L316.627 64.9748H301.923L302.141 64.0645C306.498 63.6093 309.003 63.0404 309.548 60.0817ZM303.557 49.1576C307.587 49.1576 311.617 45.5162 313.578 41.1921L316.192 28.2197C316.845 23.5542 314.776 18.661 308.567 18.661C302.686 18.661 297.675 24.2369 296.042 32.3162C294.081 42.2162 296.913 49.1576 303.557 49.1576Z" fill="white"/>
<path d="M365.75 49.6128L365.532 50.5232H352.679L352.897 49.6128C356.383 49.2714 357.908 48.1335 358.452 45.4025L362.809 23.7818C363.571 20.1404 362.591 19.5714 358.779 20.368L358.997 19.4576L366.839 16.7266H367.71L361.938 45.4025C361.393 48.1335 362.373 49.2714 365.75 49.6128ZM367.928 4.77832C369.671 4.77832 370.76 6.14384 370.542 7.96453C370.324 9.78522 368.799 11.0369 367.166 11.0369C365.423 11.0369 364.225 9.67142 364.443 7.96453C364.661 6.14384 366.185 4.77832 367.928 4.77832Z" fill="white"/>
<path d="M347.56 45.2886L350.501 30.8369L353.333 16.7266H352.462L344.619 19.4576L344.402 20.3679C348.105 19.5714 349.085 20.1404 348.432 23.7817L344.728 42.2162C340.589 46.199 337.758 48.5886 334.163 48.5886C329.807 48.5886 327.519 45.5162 328.608 40.1679L333.401 16.7266H332.529L324.687 19.4576L324.469 20.3679C328.173 19.5714 329.262 20.1404 328.499 23.7817L325.123 40.6231C323.816 46.8817 326.866 51.4335 332.421 51.4335C336.124 51.4335 339.391 49.2714 344.511 43.5817L344.293 44.7197L343.204 50.2955H351.372L351.59 49.2714C347.996 49.1576 347.016 48.1335 347.56 45.2886Z" fill="white"/>
<path d="M399.95 15.4748L402.455 2.84375H401.584L393.742 5.5748L393.524 6.48513C397.227 5.68858 398.208 6.25754 397.554 9.89892L395.376 20.7093C393.96 18.3196 390.91 16.7265 387.425 16.7265C378.82 16.7265 371.74 23.8955 369.889 32.8851C367.71 43.8093 371.305 51.5472 379.147 51.5472C384.048 51.5472 388.732 48.0196 390.91 43.0127L390.365 45.8575L389.385 50.523L397.554 50.4093L397.772 49.4989C394.395 49.1575 393.415 48.0196 393.96 45.2886L399.95 15.4748ZM391.237 41.0782C389.385 45.5161 385.246 49.1575 381.216 49.1575C374.572 49.1575 371.74 42.2162 373.592 32.8851C375.335 24.123 380.454 18.661 386.335 18.661C392.653 18.661 394.722 23.8955 393.851 28.561L393.524 30.0403L391.237 41.0782Z" fill="white"/>
</g>
<defs>
<clipPath id="clip0_421_985">
<rect width="403" height="66" fill="white"/>
</clipPath>
</defs>
</svg>
