<svg xmlns="http://www.w3.org/2000/svg" viewBox="0 0 32 32" fill="none">
  <rect width="32" height="32" rx="8" fill="#0a0908"/>
  <rect x="1" y="1" width="30" height="30" rx="7" stroke="#2a2928" stroke-width="1.5"/>
  <g transform="translate(5.25, 6.5) scale(0.0215)">
    <path fill-rule="evenodd" clip-rule="evenodd" d="M5.59521 557.122C8.78643 560.296 10.3824 560.297 11.978 561.884C29.5298 588.862 53.464 604.732 83.7806 612.667C93.3542 615.841 102.928 615.841 112.501 615.841C222.599 615.841 334.291 615.841 444.388 615.841C458.749 615.841 466.727 607.906 466.727 593.623C466.727 572.992 466.727 552.361 466.727 531.73C466.727 522.208 461.94 514.274 452.366 511.1C415.667 498.404 380.564 485.708 343.865 471.425C332.696 466.664 327.909 458.729 329.504 449.207C331.1 442.859 334.291 438.098 340.674 434.924C358.225 428.576 375.777 422.228 393.329 415.88C412.476 409.532 431.624 401.597 450.771 395.249C463.536 390.488 468.323 382.553 468.323 369.857C468.323 350.813 468.323 331.769 468.323 312.725C468.323 309.551 468.323 304.79 466.727 301.616C463.536 293.681 458.749 288.92 449.175 288.92C442.793 288.92 438.006 288.92 431.624 288.92C327.909 288.92 224.194 288.92 120.479 288.92C101.332 288.92 82.1848 290.507 64.633 298.442C43.8901 307.964 24.7429 322.247 11.978 341.291C10.3824 342.878 8.78642 344.465 5.5952 347.639C5.5952 342.878 3.99998 339.704 3.99998 336.53C3.99997 239.723 3.99997 142.916 3.99996 47.696C3.99996 38.174 5.59519 36.587 13.5732 36.587C120.479 36.587 228.981 36.587 335.887 36.587C355.034 36.587 369.395 42.935 378.969 60.392C406.094 104.828 433.219 149.264 460.345 193.7C473.529 214.681 489.981 238.912 504.301 261.022C508.339 267.258 517.54 267.189 521.417 260.852C551.964 210.928 589.138 151.116 618.31 103.241C627.884 88.9579 635.862 74.6751 643.84 58.8051C653.414 42.9351 666.178 35.0001 685.325 35.0001C785.849 35.0001 886.373 35.0001 986.896 35.0001C994.874 35.0001 1002.85 35.0001 1010.83 35.0001C1017.21 35.0001 1018.81 36.5871 1018.81 42.9351C1018.81 47.6961 1018.81 54.0441 1018.81 58.8051C1018.81 144.503 1018.81 231.788 1018.81 317.486C1018.81 325.421 1018.81 333.356 1018.81 341.291C1014.02 342.878 1012.43 339.704 1010.83 338.117C986.896 303.203 951.793 285.746 910.307 285.746C800.21 285.746 690.113 285.746 580.015 285.746C560.868 285.746 556.081 295.268 556.081 309.551C556.081 328.595 556.081 347.639 556.081 366.683C556.081 382.553 559.273 387.314 575.229 393.662C605.545 404.771 635.862 414.293 666.179 425.402C670.966 426.989 675.753 428.576 682.135 431.75C690.113 434.924 694.9 441.272 694.9 449.206C694.9 457.141 690.113 465.076 682.135 468.25C672.561 471.424 664.583 474.599 655.009 479.36C634.266 487.295 613.523 495.229 591.185 501.577C584.802 504.751 576.825 506.338 570.442 509.512C560.868 512.686 557.676 520.622 557.676 530.144C557.676 546.014 557.676 561.883 557.676 579.34C557.676 585.688 557.676 590.449 557.676 596.797C559.272 607.906 565.655 614.254 576.824 614.254C591.185 614.254 605.545 614.254 619.906 614.254C714.047 614.254 808.188 614.254 902.329 614.254C919.881 614.254 939.028 614.254 956.579 606.319C978.918 596.797 998.065 584.101 1012.43 563.47C1014.02 560.296 1015.62 557.122 1020.4 557.122C1020.4 558.709 1022 558.709 1022 560.296C1022 580.927 1022 603.145 1022 623.776C1022 699.952 1022 777.715 1022 853.891C1022 863.413 1020.4 865 1010.83 865C903.925 865 795.423 865 688.517 865C667.774 865 655.009 857.065 645.435 839.608C621.501 798.346 595.972 758.671 570.442 717.409C558.61 697.796 538.113 665.255 523.23 641.089C519.282 634.679 509.911 634.686 505.948 641.087C483.348 677.59 455.966 718.848 434.815 753.91C417.263 782.476 398.116 812.629 380.564 841.195C370.99 857.065 358.226 865 339.078 865C232.172 865 125.266 865 16.7647 865C5.59542 865 5.59522 863.413 5.59522 852.304C5.59522 757.084 5.59521 661.864 5.59521 566.645C3.9996 565.058 5.59521 561.883 5.59521 557.122Z" fill="white"/>
  </g>
</svg>